<svg xmlns="http://www.w3.org/2000/svg" viewBox="0 0 800 800" width="800" height="800" role="img" aria-hidden="true">
  <defs>
    <linearGradient id="bg-gamepad-playstation-5-slim" gradientTransform="rotate(90)">
      <stop offset="0%" stop-color="#EFEFF2"/>
      <stop offset="100%" stop-color="#E4E5EA"/>
    </linearGradient>
    <pattern id="dots-gamepad-playstation-5-slim" width="30" height="30" patternUnits="userSpaceOnUse" patternTransform="rotate(10)">
      <circle cx="1.5" cy="1.5" r="1.6" fill="#2454D9" opacity="0.16"/>
    </pattern>
  </defs>

  <rect width="800" height="800" fill="url(#bg-gamepad-playstation-5-slim)"/>
  <rect width="800" height="800" fill="url(#dots-gamepad-playstation-5-slim)"/>

  <g fill="none" stroke="#2454D9" stroke-width="3" stroke-linecap="round">
    <path d="M 36 92 V 36 H 92" opacity="0.9"/>
    <path d="M 764 708 V 764 H 708" opacity="0.9"/>
  </g>

  <g transform="translate(400 400) scale(13.600000000000001) translate(-12 -12)" fill="none" stroke="#2454D9" stroke-width="7" stroke-linecap="round" stroke-linejoin="round">
    
    <path d="M6.5 8h11a4 4 0 0 1 4 4.6l-.6 3.3a2.3 2.3 0 0 1-3.9 1.2L15.3 15H8.7l-1.7 2.1a2.3 2.3 0 0 1-3.9-1.2l-.6-3.3A4 4 0 0 1 6.5 8z" vector-effect="non-scaling-stroke"/>
    <line x1="7.2" y1="11.3" x2="7.2" y2="13.7" vector-effect="non-scaling-stroke"/>
    <line x1="6" y1="12.5" x2="8.4" y2="12.5" vector-effect="non-scaling-stroke"/>
    <circle cx="17" cy="11.3" r=".6" fill="currentColor" stroke="none"/>
    <circle cx="15.2" cy="13" r=".6" fill="currentColor" stroke="none"/>
  </g>
</svg>